<?xml version="1.0" encoding="UTF-8" standalone="no"?>
<svg xmlns="http://www.w3.org/2000/svg" width="500" height="454.5191">
	<title>Jovem Pan</title>
	<g transform="translate(10.516144,-398.27561)">
    		<path d="m 247.22532,398.27561 c -112.14903,0 -205.263373,81.26375 -223.828221,188.10721 -3.061632,1.99706 -6.008901,4.42262 -8.79828,7.21459 -10.8113251,11.30755 -18.2687465,26.6975 -22.6115772,46.89483 -4.1457488,20.29587 -3.2166508,40.61286 3.3433461,60.70813 4.24428995,12.72583 13.7253157,24.87449 28.7703731,36.68882 11.108524,8.50497 22.953317,13.8316 35.633031,15.92489 40.942968,59.74961 109.588548,98.98064 187.491328,98.98064 122.60481,0 222.602,-97.06602 227.17158,-218.54926 5.56801,-9.34478 9.74546,-20.49689 12.58154,-33.69741 4.14575,-20.19733 3.22369,-40.51431 -3.34334,-60.70812 -4.23373,-12.72231 -13.72532,-24.98008 -28.77038,-36.68883 -8.09058,-6.25272 -16.52615,-10.66453 -25.42702,-13.46136 -41.43798,-55.47216 -107.64299,-91.41413 -182.21238,-91.41413 z m -9.50214,15.57296 c 63.57159,0 120.53207,28.04627 159.33685,72.40984 l -134.26175,0 c -9.89279,-0.10192 -9.76609,12.66952 -9.76609,12.66952 l 0,246.87971 c 0,6.36292 8.1824,9.06223 8.1824,9.06223 l 142.35617,0 c 0.64282,0 1.18614,-0.047 1.75965,-0.0878 -38.71291,50.15135 -99.3502,82.52786 -167.60723,82.52786 -68.26113,0 -128.98156,-32.37651 -167.695201,-82.52786 0.68238,0.0169 1.336268,0.0878 2.023604,0.0878 0,0 132.206467,-0.0985 144.027827,0 9.89279,0 9.76609,-12.7575 9.76609,-12.7575 l 0,-246.9677 c 0,-6.36644 -8.1824,-8.88626 -8.1824,-8.88626 l -139.276756,0 C 117.19163,441.90472 174.15594,413.84857 237.72318,413.84857 z M 66.244719,501.39145 134.16743,674.01369 c 6.6691,17.769 7.16532,31.93071 1.40773,42.23174 -5.54996,10.30102 -13.59862,16.40351 -23.49141,18.82831 -9.89278,2.32627 -19.792605,0.39769 -30.090112,-4.75107 -9.899823,-5.65905 -15.59055,-15.48849 -17.508575,-29.1223 -3.234248,-11.20549 1.010042,-23.46325 12.317591,-36.68883 11.314587,-13.13055 17.864026,-27.70754 19.180248,-44.16736 1.010043,-8.48506 -1.302145,-16.51613 -6.95064,-23.57939 -5.659053,-6.56703 -12.715273,-11.68763 -21.203853,-14.51716 -8.485061,-2.92806 -17.885142,-3.79381 -27.274666,-2.37553 -3.589923,0.51176 -6.965506,1.45162 -10.206004,2.81545 6.148463,-29.90953 18.584275,-57.44269 35.89698,-81.2961 z m 308.115751,3.60729 c 7.44202,-0.241 14.97642,1.7667 22.69956,5.6309 9.89278,5.6485 15.50257,15.57647 17.42059,29.21029 3.23425,11.20549 -1.01356,23.55827 -12.31759,36.68882 -11.30755,13.13055 -17.85347,27.70402 -19.26823,44.16736 -0.90798,8.48858 1.37957,16.49854 7.03862,23.66737 5.6485,6.56704 12.72583,11.68764 21.20386,14.51717 8.47802,2.826 17.88514,3.78677 27.27466,2.37553 2.86664,-0.40996 5.628,-1.15709 8.27038,-2.11159 -4.87143,30.5677 -16.2533,58.94853 -32.72959,83.67164 -0.20525,-0.6221 -0.35194,-1.14378 -0.35194,-1.14378 L 344.71027,567.11459 c -6.57056,-17.87458 -7.06678,-32.02221 -1.40773,-42.31972 5.6485,-10.30103 13.77459,-16.41759 23.66737,-18.74033 2.47408,-0.6062 4.90989,-0.97545 7.39056,-1.0558 z" style="fill:#c61d23;fill-opacity:1" />
	</g>
</svg>
