<svg width="1442" height="630" viewBox="0 0 1442 630" fill="none" xmlns="http://www.w3.org/2000/svg">
<path d="M37.568 629.426C22.695 629.426 10.768 627.503 0 624.042L4.615 608.399C15.0737 611.211 25.8402 612.719 36.669 612.887C52.311 612.887 63.722 611.092 63.722 601.733C63.722 596.348 60.004 592.757 42.054 591.604C22.436 590.449 0.896996 586.219 0.896996 566.604C0.896996 546.09 21.668 540.32 41.414 540.32C52.2138 540.32 62.9748 541.611 73.468 544.166L69.877 560.313C60.5216 558.253 50.9904 557.094 41.414 556.851C25.772 556.851 18.335 560.57 18.335 565.951C18.335 571.332 27.823 574.156 43.081 575.051C62.181 576.332 81.161 580.692 81.161 600.565C81.161 623.387 58.083 629.413 37.569 629.413L37.568 629.426Z" fill="#1D2832"/>
<path d="M236.68 557.113H185.137V574.678H220.782L219.243 591.09H185.137V612.502H238.219L236.68 628.913H167.829V540.702H238.219L236.68 557.113Z" fill="#1D2832"/>
<path d="M395.277 612.502L393.868 628.913H324.888V540.702H342.197V612.502H395.277Z" fill="#1D2832"/>
<path d="M550.668 557.113H499.126V574.678H534.768L533.229 591.09H499.126V612.502H552.208L550.668 628.913H481.818V540.702H552.208L550.668 557.113Z" fill="#1D2832"/>
<path d="M709.268 608.013L714.91 623.27C704.523 627.37 695.292 629.424 680.291 629.424C652.853 629.424 632.082 615.45 632.082 584.806C632.082 554.291 652.853 540.316 680.291 540.316C691.96 540.316 703.882 542.24 711.833 544.931L707.216 560.702C701.703 559.163 689.523 556.855 680.291 556.855C657.085 556.855 649.52 569.293 649.52 584.806C649.52 600.319 657.085 612.885 680.291 612.885C690.157 612.923 699.957 611.276 709.268 608.013Z" fill="#1D2832"/>
<path d="M881.068 557.113H848.248V628.913H830.938V557.113H796.705L798.115 540.701H882.481L881.068 557.113Z" fill="#1D2832"/>
<path d="M466.148 493.105H385.668V216.338L501.501 216.331C504.683 216.256 507.805 216.258 510.868 216.338H511.115V216.345C582.747 218.213 622.703 261.213 622.703 335.384V493.105H581.881C558.508 493.105 541.968 476.671 541.968 453.272V321.863C541.968 298.563 527.318 284.839 504.545 284.457H503.926H503.564H503.2H466.147L466.148 493.105ZM727.988 407.847C727.988 414.469 729.443 421.196 734.436 425.903C753.61 443.961 805.69 424.574 805.69 389.53C805.69 381.875 805.694 374.508 805.703 367.43C789.069 373.924 771.736 376.989 754.416 380.893C739.395 384.28 727.988 390.974 727.988 407.847ZM811.846 481.023C794.033 490.948 764.075 497.861 745.102 497.967C721.376 498.101 699.388 491.707 680.087 477.759C657.908 461.729 651.129 435.903 651.129 409.744C651.129 380.178 660.619 360.69 675.909 347.469C709.265 318.63 804.709 321.658 804.709 299.603C804.709 280.736 737.834 269.669 734.145 301.76H656.931C672.642 179.212 882.482 197.097 882.482 295.73V498.104L843.87 498.12C837.54 498.11 831.31 496.545 825.726 493.564C820.143 490.583 815.376 486.277 811.846 481.023ZM1035.56 286.695C1022.8 286.736 1010.57 291.824 1001.55 300.848C992.523 309.871 987.435 322.098 987.393 334.859V379.059C987.393 391.833 992.467 404.084 1001.5 413.116C1010.53 422.149 1022.78 427.223 1035.56 427.223C1048.33 427.223 1060.58 422.149 1069.61 413.116C1078.65 404.084 1083.72 391.833 1083.72 379.059V334.859C1083.72 332.973 1083.61 331.089 1083.39 329.216V286.695H1035.56ZM1083.73 487.864C1068.48 494.26 1052.1 497.55 1035.56 497.544C966.584 497.544 910.175 441.133 910.175 372.155V341.765C910.175 272.784 966.584 216.376 1035.56 216.376L1160.95 216.398V504.037C1160.95 572.891 1104.79 628.583 1036.19 629.42L1035.58 629.426H940.762V597.713C940.78 587.478 944.854 577.667 952.091 570.429C959.329 563.191 969.14 559.117 979.375 559.099H1035.56C1048.33 559.057 1060.55 553.969 1069.58 544.945C1078.6 535.922 1083.69 523.695 1083.73 510.934V487.864ZM1274.07 324.487H1357.17C1355.8 314.912 1352.8 304.661 1346.29 297.607C1338.33 288.999 1327.09 286.342 1315.75 286.342C1304.32 286.342 1294.11 289.614 1285.92 297.806C1278.69 305.036 1275.35 314.589 1274.06 324.486L1274.07 324.487ZM1272.98 382.23C1272.98 416.415 1294.21 431.264 1315.75 431.356C1330.69 431.422 1345.88 424.772 1353.83 410.991C1356.8 405.858 1362.32 403.442 1368.25 403.442H1438.77C1421.05 465.759 1374.95 497.97 1314.75 497.97C1279.17 497.97 1247.35 487.003 1223.49 459.8C1198.35 431.146 1190.83 392.764 1190.83 355.664C1190.83 319.564 1198.26 282.487 1222.46 254.454C1246.13 227.036 1278.24 216.243 1313.76 216.243C1349.74 216.243 1384.24 225.752 1408.86 253.381C1436.86 284.801 1447.41 341.365 1437.89 381.975H1345.76L1272.98 382.23ZM178.178 324.842L238.929 493.104H117.352L178.178 324.842ZM178.254 0L356.282 493.1H278.86L178.278 214.177L77.621 493.104H0.000976562L178.254 0ZM1316.19 0L1383.47 186.358H1338.87L1316.19 123.558L1293.49 186.358H1248.83L1316.19 0Z" fill="#1D2832"/>
</svg>
